<svg host="65bd71144e" xmlns="http://www.w3.org/2000/svg" style="background: transparent; background-color: transparent;" xmlns:xlink="http://www.w3.org/1999/xlink" version="1.1" width="1211px" height="591px" viewBox="-0.5 -0.5 1211 591" content="&lt;mxfile&gt;&lt;diagram name=&quot;Page-1&quot; id=&quot;S7N5h3EOK6jMUuA54jZ1&quot;&gt;7Vpbc5s4FP41frQHgbn4MXbSdHa8nW3zsI8dxcigKSAW5Bj3168EQlxEa6c1lzROHgzfEUL6znekc2TPjE2YPSYw9v8mLgpmuuZmM+N+puvANCz2wZFTgTiOALwEu6JRBTzh70iAmkAP2EVpoyElJKA4boI7EkVoRxsYTBJybDbbk6D51hh6SAGedjBQ0X+xS30xC92u8I8Ie375ZmCtCksIy8ZiJqkPXXKsQcbDzNgkhNDiKsw2KODklbwUz334gVUOLEERveQB96/tS4I+0cM6e/yyXX+eP5yMuejlBQYHMWExWHoqGTj6mKKnGO74/ZF5eWasfRoG7A6wS5jGBe97nCH2qrU6rvIlKKEoq0FinI+IhIgmJ9aktBqCMyGaksJj5QFzJTC/xr4EofC6J7uuiGEXgptX8KQrPD0hmOx8hj3zgUcwRIvFQiEvIYfI5bTkXJ2jMsBexK4DtKdXItJqEmmqROpWB5FGXzwa5/WWfkN0xwenMQ7IgQY4QhsZ3Rzck4huSECS/AGD/X/gQ1h7CXQxqmwRiRBvjoOg3fye4SlNyDfUauzC1M/9xV/EicZsLdjCZxT8Q1JMMeEOeiaUkrDW4E54jpK45scdGwtKmj7mYxerHNDLezF5rSucYoJ5Lw8vrLNUdMKWkpg/EGYeX3UX8JguFyH0Irw/4cj76gUwTb/q19GQsbKaGrIUDQFHlVCJXV1C5nkJVVGnnY+6HsIMgI4Fy+iIs6XTV6BZHSxZAV9W0hhGDbqs/w58D8qlON/DEAdsGnd8CyMRSQve1vneyexprl1u1eKswBlJdC40f5f3DBNaM3HK5yHLDApzRIQPqjezK6/4NNuphMnmzNF8n5R3JQdmzgJD7vk13yZMPlGTUXeuLZBtS9//Ujd61U3BtbRUhoJqaSjVyQE+ioZCOZjzw/FcpVWz2qsKaV4yGWmS86j0a3IFy5b2qpq4dqpN0ajhhaKlzQQ1m1C2NNb7YwKXuFcbQJvm/FZyXQebChDtFKkUGmchU8i81NVN+jfpv1Pp/05Geo290W7tjV3JPOjYG3vL5e3XJBDjkCQT8NFIcqZPkrEcm6TVeZJGqJ5tsyWm0avn0ilvrXy2nSaTo5fP4ILzmlv9PK36GWilkyZSQAP1MOsngTdMBd2OtAlU0OCCs6qht0B7NbVkCiynz9L42RR41aHVOCyNn06BrkOriS1MzoUpQH8kqeXLF5QeWO2na+DN0tVfxqQWMpKu6amra9sbmC+1ppF8GdPjq2PNGpavcomqlzaUJIhBn1hRozDGjwWbtHSx1pla1/NwASmZcjuhDrHr8levm566giscrbXJdriiq8rszxNqvsZKDrrjp6/vxwu26gVnUC+o+eAW0uL4O+N/f64vgDxp+UlIDLs4qWnnlkTeO/EGOB8adk/e6NgUGuddsViY+jnzUkjqoPKHvC1bv70Z8szr9uuQMU63fksulqU35TLc4Za607yZIAOaOV6UXXAWcYuyaUUZ0FdDhdlMfN1c2WpfNBsP/wM=&lt;/diagram&gt;&lt;/mxfile&gt;">
    <defs/>
    <g>
        <g>
            <rect x="0" y="0" width="590" height="590" fill="#ffffff" stroke="#000000" pointer-events="all" style="fill: light-dark(#ffffff, var(--ge-dark-color, #121212)); stroke: light-dark(rgb(0, 0, 0), rgb(255, 255, 255));"/>
        </g>
        <g>
            <rect x="30" y="30" width="260" height="30" rx="4.5" ry="4.5" fill="#ffffff" stroke="#000000" pointer-events="all" style="fill: light-dark(#ffffff, var(--ge-dark-color, #121212)); stroke: light-dark(rgb(0, 0, 0), rgb(255, 255, 255));"/>
        </g>
        <g>
            <g transform="translate(-0.5 -0.5)">
                <switch>
                    <foreignObject style="overflow: visible; text-align: left;" pointer-events="none" width="100%" height="100%" requiredFeatures="http://www.w3.org/TR/SVG11/feature#Extensibility">
                        <div xmlns="http://www.w3.org/1999/xhtml" style="display: flex; align-items: unsafe center; justify-content: unsafe flex-start; width: 258px; height: 1px; padding-top: 45px; margin-left: 32px;">
                            <div style="box-sizing: border-box; font-size: 0; text-align: left; color: #000000; ">
                                <div style="display: inline-block; font-size: 12px; font-family: &quot;Helvetica&quot;; color: light-dark(#000000, #ffffff); line-height: 1.2; pointer-events: all; white-space: normal; word-wrap: normal; ">
                                    Search by name...
                                </div>
                            </div>
                        </div>
                    </foreignObject>
                    <text x="32" y="49" fill="light-dark(#000000, #ffffff)" font-family="&quot;Helvetica&quot;" font-size="12px">
                        Search by name...
                    </text>
                </switch>
            </g>
        </g>
        <g>
            <rect x="266" y="36" width="18" height="18" fill="none" stroke="none" pointer-events="all"/>
            <path d="M 282.72 52.8 C 282.33 53.19 281.67 53.19 281.28 52.8 L 277.33 48.85 C 277.87 48.44 278.35 47.96 278.76 47.41 L 282.72 51.37 C 283.11 51.77 283.11 52.41 282.72 52.8 M 266.81 43.18 C 266.81 39.72 269.63 36.9 273.09 36.9 C 276.55 36.9 279.37 39.72 279.37 43.18 C 279.37 46.64 276.55 49.46 273.09 49.46 C 269.63 49.46 266.81 46.64 266.81 43.18 M 283.29 50.8 L 279.22 46.73 C 279.82 45.68 280.18 44.47 280.18 43.18 C 280.18 39.27 277 36.09 273.09 36.09 C 269.18 36.09 266 39.27 266 43.18 C 266 47.09 269.18 50.27 273.09 50.27 C 274.38 50.27 275.59 49.91 276.64 49.3 L 280.71 53.38 C 281.06 53.72 281.51 53.91 282 53.91 C 282.49 53.91 282.94 53.72 283.29 53.38 C 284 52.67 284 51.51 283.29 50.8 M 273.09 47.63 C 270.63 47.63 268.63 45.63 268.63 43.18 C 268.63 40.72 270.63 38.72 273.09 38.72 C 275.55 38.72 277.54 40.72 277.54 43.18 C 277.54 45.63 275.55 47.63 273.09 47.63 M 273.09 37.91 C 270.19 37.91 267.82 40.27 267.82 43.18 C 267.82 46.08 270.19 48.44 273.09 48.44 C 275.99 48.44 278.35 46.08 278.35 43.18 C 278.35 40.27 275.99 37.91 273.09 37.91" fill="#232f3d" stroke="none" pointer-events="all" style="fill: light-dark(rgb(35, 47, 61), rgb(190, 200, 212));"/>
        </g>
        <g>
            <rect x="30" y="90" width="530" height="480" fill="#ffffff" stroke="#000000" pointer-events="all" style="fill: light-dark(#ffffff, var(--ge-dark-color, #121212)); stroke: light-dark(rgb(0, 0, 0), rgb(255, 255, 255));"/>
        </g>
        <g>
            <rect x="40" y="100" width="510" height="90" rx="13.5" ry="13.5" fill="#ffffff" stroke="#000000" pointer-events="all" style="fill: light-dark(#ffffff, var(--ge-dark-color, #121212)); stroke: light-dark(rgb(0, 0, 0), rgb(255, 255, 255));"/>
        </g>
        <g>
            <g transform="translate(-0.5 -0.5)">
                <switch>
                    <foreignObject style="overflow: visible; text-align: left;" pointer-events="none" width="100%" height="100%" requiredFeatures="http://www.w3.org/TR/SVG11/feature#Extensibility">
                        <div xmlns="http://www.w3.org/1999/xhtml" style="display: flex; align-items: unsafe center; justify-content: unsafe center; width: 508px; height: 1px; padding-top: 145px; margin-left: 41px;">
                            <div style="box-sizing: border-box; font-size: 0; text-align: center; color: #000000; ">
                                <div style="display: inline-block; font-size: 12px; font-family: &quot;Helvetica&quot;; color: light-dark(#000000, #ffffff); line-height: 1.2; pointer-events: all; white-space: normal; word-wrap: normal; ">
                                    <span style="font-family: monospace; font-size: 0px; text-align: start; text-wrap-mode: nowrap;">
                                        %3CmxGraphModel%3E%3Croot%3E%3CmxCell%20id%3D%220%22%2F%3E%3CmxCell%20id%3D%221%22%20parent%3D%220%22%2F%3E%3CmxCell%20id%3D%222%22%20value%3D%22%22%20style%3D%22rounded%3D1%3BwhiteSpace%3Dwrap%3Bhtml%3D1%3B%22%20vertex%3D%221%22%20parent%3D%221%22%3E%3CmxGeometry%20x%3D%22790%22%20y%3D%22230%22%20width%3D%22510%22%20height%3D%2290%22%20as%3D%22geometry%22%2F%3E%3C%2FmxCell%3E%3C%2Froot%3E%3C%2FmxGraphModel%3E
                                    </span>
                                    <span style="font-family: monospace; font-size: 0px; text-align: start; text-wrap-mode: nowrap;">
                                        %3CmxGraphModel%3E%3Croot%3E%3CmxCell%20id%3D%220%22%2F%3E%3CmxCell%20id%3D%221%22%20parent%3D%220%22%2F%3E%3CmxCell%20id%3D%222%22%20value%3D%22%22%20style%3D%22rounded%3D1%3BwhiteSpace%3Dwrap%3Bhtml%3D1%3B%22%20vertex%3D%221%22%20parent%3D%221%22%3E%3CmxGeometry%20x%3D%22790%22%20y%3D%22230%22%20width%3D%22510%22%20height%3D%2290%22%20as%3D%22geometry%22%2F%3E%3C%2FmxCell%3E%3C%2Froot%3E%3C%2FmxGraphModel%3E
                                    </span>
                                </div>
                            </div>
                        </div>
                    </foreignObject>
                    <text x="295" y="149" fill="light-dark(#000000, #ffffff)" font-family="&quot;Helvetica&quot;" font-size="12px" text-anchor="middle">
                        %3CmxGraphModel%3E%3Croot%3E%3CmxCell%20id%3D%220%22%2F%3E%3CmxCell%20id%3D%221%22%20...
                    </text>
                </switch>
            </g>
        </g>
        <g>
            <rect x="40" y="210" width="510" height="90" rx="13.5" ry="13.5" fill="#ffffff" stroke="#000000" pointer-events="all" style="fill: light-dark(#ffffff, var(--ge-dark-color, #121212)); stroke: light-dark(rgb(0, 0, 0), rgb(255, 255, 255));"/>
        </g>
        <g>
            <rect x="40" y="320" width="510" height="90" rx="13.5" ry="13.5" fill="#ffffff" stroke="#000000" pointer-events="all" style="fill: light-dark(#ffffff, var(--ge-dark-color, #121212)); stroke: light-dark(rgb(0, 0, 0), rgb(255, 255, 255));"/>
        </g>
        <g>
            <rect x="620" y="0" width="590" height="590" fill="#ffffff" stroke="#000000" pointer-events="all" style="fill: light-dark(#ffffff, var(--ge-dark-color, #121212)); stroke: light-dark(rgb(0, 0, 0), rgb(255, 255, 255));"/>
        </g>
        <g>
            <rect x="650" y="30" width="260" height="30" rx="4.5" ry="4.5" fill="#ffffff" stroke="#000000" pointer-events="all" style="fill: light-dark(#ffffff, var(--ge-dark-color, #121212)); stroke: light-dark(rgb(0, 0, 0), rgb(255, 255, 255));"/>
        </g>
        <g>
            <g transform="translate(-0.5 -0.5)">
                <switch>
                    <foreignObject style="overflow: visible; text-align: left;" pointer-events="none" width="100%" height="100%" requiredFeatures="http://www.w3.org/TR/SVG11/feature#Extensibility">
                        <div xmlns="http://www.w3.org/1999/xhtml" style="display: flex; align-items: unsafe center; justify-content: unsafe flex-start; width: 258px; height: 1px; padding-top: 45px; margin-left: 652px;">
                            <div style="box-sizing: border-box; font-size: 0; text-align: left; color: #000000; ">
                                <div style="display: inline-block; font-size: 12px; font-family: &quot;Helvetica&quot;; color: light-dark(#000000, #ffffff); line-height: 1.2; pointer-events: all; white-space: normal; word-wrap: normal; ">
                                    Search by name...
                                </div>
                            </div>
                        </div>
                    </foreignObject>
                    <text x="652" y="49" fill="light-dark(#000000, #ffffff)" font-family="&quot;Helvetica&quot;" font-size="12px">
                        Search by name...
                    </text>
                </switch>
            </g>
        </g>
        <g>
            <rect x="892" y="36" width="18" height="18" fill="none" stroke="none" pointer-events="all"/>
            <path d="M 908.72 52.8 C 908.33 53.19 907.67 53.19 907.28 52.8 L 903.33 48.85 C 903.87 48.44 904.35 47.96 904.76 47.41 L 908.72 51.37 C 909.11 51.77 909.11 52.41 908.72 52.8 M 892.81 43.18 C 892.81 39.72 895.63 36.9 899.09 36.9 C 902.55 36.9 905.37 39.72 905.37 43.18 C 905.37 46.64 902.55 49.46 899.09 49.46 C 895.63 49.46 892.81 46.64 892.81 43.18 M 909.29 50.8 L 905.22 46.73 C 905.82 45.68 906.18 44.47 906.18 43.18 C 906.18 39.27 903 36.09 899.09 36.09 C 895.18 36.09 892 39.27 892 43.18 C 892 47.09 895.18 50.27 899.09 50.27 C 900.38 50.27 901.59 49.91 902.64 49.3 L 906.71 53.38 C 907.06 53.72 907.51 53.91 908 53.91 C 908.49 53.91 908.94 53.72 909.29 53.38 C 910 52.67 910 51.51 909.29 50.8 M 899.09 47.63 C 896.63 47.63 894.63 45.63 894.63 43.18 C 894.63 40.72 896.63 38.72 899.09 38.72 C 901.55 38.72 903.54 40.72 903.54 43.18 C 903.54 45.63 901.55 47.63 899.09 47.63 M 899.09 37.91 C 896.19 37.91 893.82 40.27 893.82 43.18 C 893.82 46.08 896.19 48.44 899.09 48.44 C 901.99 48.44 904.35 46.08 904.35 43.18 C 904.35 40.27 901.99 37.91 899.09 37.91" fill="#232f3d" stroke="none" pointer-events="all" style="fill: light-dark(rgb(35, 47, 61), rgb(190, 200, 212));"/>
        </g>
        <g>
            <rect x="650" y="90" width="530" height="480" fill="#ffffff" stroke="#000000" pointer-events="all" style="fill: light-dark(#ffffff, var(--ge-dark-color, #121212)); stroke: light-dark(rgb(0, 0, 0), rgb(255, 255, 255));"/>
        </g>
        <g>
            <rect x="660" y="100" width="510" height="90" rx="13.5" ry="13.5" fill="#ffffff" stroke="#000000" pointer-events="all" style="fill: light-dark(#ffffff, var(--ge-dark-color, #121212)); stroke: light-dark(rgb(0, 0, 0), rgb(255, 255, 255));"/>
        </g>
        <g>
            <rect x="660" y="210" width="510" height="90" rx="13.5" ry="13.5" fill="#ffffff" stroke="#000000" pointer-events="all" style="fill: light-dark(#ffffff, var(--ge-dark-color, #121212)); stroke: light-dark(rgb(0, 0, 0), rgb(255, 255, 255));"/>
        </g>
        <g>
            <rect x="660" y="320" width="510" height="90" rx="13.5" ry="13.5" fill="#ffffff" stroke="#000000" pointer-events="all" style="fill: light-dark(#ffffff, var(--ge-dark-color, #121212)); stroke: light-dark(rgb(0, 0, 0), rgb(255, 255, 255));"/>
        </g>
        <g>
            <rect x="650" y="60" width="260" height="90" fill="#ffffff" stroke="#000000" pointer-events="all" style="fill: light-dark(#ffffff, var(--ge-dark-color, #121212)); stroke: light-dark(rgb(0, 0, 0), rgb(255, 255, 255));"/>
        </g>
        <g>
            <rect x="650" y="60" width="260" height="30" fill="#ffffff" stroke="#000000" pointer-events="all" style="fill: light-dark(#ffffff, var(--ge-dark-color, #121212)); stroke: light-dark(rgb(0, 0, 0), rgb(255, 255, 255));"/>
        </g>
        <g>
            <g transform="translate(-0.5 -0.5)">
                <switch>
                    <foreignObject style="overflow: visible; text-align: left;" pointer-events="none" width="100%" height="100%" requiredFeatures="http://www.w3.org/TR/SVG11/feature#Extensibility">
                        <div xmlns="http://www.w3.org/1999/xhtml" style="display: flex; align-items: unsafe center; justify-content: unsafe center; width: 258px; height: 1px; padding-top: 75px; margin-left: 651px;">
                            <div style="box-sizing: border-box; font-size: 0; text-align: center; color: #000000; ">
                                <div style="display: inline-block; font-size: 12px; font-family: &quot;Helvetica&quot;; color: light-dark(#000000, #ffffff); line-height: 1.2; pointer-events: all; white-space: normal; word-wrap: normal; ">
                                    Result 1
                                </div>
                            </div>
                        </div>
                    </foreignObject>
                    <text x="780" y="79" fill="light-dark(#000000, #ffffff)" font-family="&quot;Helvetica&quot;" font-size="12px" text-anchor="middle">
                        Result 1
                    </text>
                </switch>
            </g>
        </g>
        <g>
            <rect x="650" y="90" width="260" height="30" fill="#ffffff" stroke="#000000" pointer-events="all" style="fill: light-dark(#ffffff, var(--ge-dark-color, #121212)); stroke: light-dark(rgb(0, 0, 0), rgb(255, 255, 255));"/>
        </g>
        <g>
            <g transform="translate(-0.5 -0.5)">
                <switch>
                    <foreignObject style="overflow: visible; text-align: left;" pointer-events="none" width="100%" height="100%" requiredFeatures="http://www.w3.org/TR/SVG11/feature#Extensibility">
                        <div xmlns="http://www.w3.org/1999/xhtml" style="display: flex; align-items: unsafe center; justify-content: unsafe center; width: 258px; height: 1px; padding-top: 105px; margin-left: 651px;">
                            <div style="box-sizing: border-box; font-size: 0; text-align: center; color: #000000; ">
                                <div style="display: inline-block; font-size: 12px; font-family: &quot;Helvetica&quot;; color: light-dark(#000000, #ffffff); line-height: 1.2; pointer-events: all; white-space: normal; word-wrap: normal; ">
                                    Result 2
                                </div>
                            </div>
                        </div>
                    </foreignObject>
                    <text x="780" y="109" fill="light-dark(#000000, #ffffff)" font-family="&quot;Helvetica&quot;" font-size="12px" text-anchor="middle">
                        Result 2
                    </text>
                </switch>
            </g>
        </g>
        <g>
            <rect x="650" y="120" width="260" height="30" fill="#ffffff" stroke="#000000" pointer-events="all" style="fill: light-dark(#ffffff, var(--ge-dark-color, #121212)); stroke: light-dark(rgb(0, 0, 0), rgb(255, 255, 255));"/>
        </g>
        <g>
            <g transform="translate(-0.5 -0.5)">
                <switch>
                    <foreignObject style="overflow: visible; text-align: left;" pointer-events="none" width="100%" height="100%" requiredFeatures="http://www.w3.org/TR/SVG11/feature#Extensibility">
                        <div xmlns="http://www.w3.org/1999/xhtml" style="display: flex; align-items: unsafe center; justify-content: unsafe center; width: 258px; height: 1px; padding-top: 135px; margin-left: 651px;">
                            <div style="box-sizing: border-box; font-size: 0; text-align: center; color: #000000; ">
                                <div style="display: inline-block; font-size: 12px; font-family: &quot;Helvetica&quot;; color: light-dark(#000000, #ffffff); line-height: 1.2; pointer-events: all; white-space: normal; word-wrap: normal; ">
                                    Result 3
                                </div>
                            </div>
                        </div>
                    </foreignObject>
                    <text x="780" y="139" fill="light-dark(#000000, #ffffff)" font-family="&quot;Helvetica&quot;" font-size="12px" text-anchor="middle">
                        Result 3
                    </text>
                </switch>
            </g>
        </g>
        <g>
            <rect x="670" y="220" width="90" height="30" fill="none" stroke="none" pointer-events="all"/>
        </g>
        <g>
            <g transform="translate(-0.5 -0.5)">
                <switch>
                    <foreignObject style="overflow: visible; text-align: left;" pointer-events="none" width="100%" height="100%" requiredFeatures="http://www.w3.org/TR/SVG11/feature#Extensibility">
                        <div xmlns="http://www.w3.org/1999/xhtml" style="display: flex; align-items: unsafe center; justify-content: unsafe center; width: 88px; height: 1px; padding-top: 235px; margin-left: 671px;">
                            <div style="box-sizing: border-box; font-size: 0; text-align: center; color: #000000; ">
                                <div style="display: inline-block; font-size: 12px; font-family: &quot;Helvetica&quot;; color: light-dark(#000000, #ffffff); line-height: 1.2; pointer-events: all; white-space: normal; word-wrap: normal; ">
                                    Store Name
                                </div>
                            </div>
                        </div>
                    </foreignObject>
                    <text x="715" y="239" fill="light-dark(#000000, #ffffff)" font-family="&quot;Helvetica&quot;" font-size="12px" text-anchor="middle">
                        Store Name
                    </text>
                </switch>
            </g>
        </g>
        <g>
            <rect x="670" y="250" width="80" height="30" fill="none" stroke="none" pointer-events="all"/>
        </g>
        <g>
            <g transform="translate(-0.5 -0.5)">
                <switch>
                    <foreignObject style="overflow: visible; text-align: left;" pointer-events="none" width="100%" height="100%" requiredFeatures="http://www.w3.org/TR/SVG11/feature#Extensibility">
                        <div xmlns="http://www.w3.org/1999/xhtml" style="display: flex; align-items: unsafe center; justify-content: unsafe center; width: 78px; height: 1px; padding-top: 265px; margin-left: 671px;">
                            <div style="box-sizing: border-box; font-size: 0; text-align: center; color: #000000; ">
                                <div style="display: inline-block; font-size: 12px; font-family: &quot;Helvetica&quot;; color: light-dark(#000000, #ffffff); line-height: 1.2; pointer-events: all; white-space: normal; word-wrap: normal; ">
                                    Postcode
                                </div>
                            </div>
                        </div>
                    </foreignObject>
                    <text x="710" y="269" fill="light-dark(#000000, #ffffff)" font-family="&quot;Helvetica&quot;" font-size="12px" text-anchor="middle">
                        Postcode
                    </text>
                </switch>
            </g>
        </g>
        <g>
            <rect x="1090" y="220" width="60" height="30" fill="none" stroke="none" pointer-events="all"/>
        </g>
        <g>
            <g transform="translate(-0.5 -0.5)">
                <switch>
                    <foreignObject style="overflow: visible; text-align: left;" pointer-events="none" width="100%" height="100%" requiredFeatures="http://www.w3.org/TR/SVG11/feature#Extensibility">
                        <div xmlns="http://www.w3.org/1999/xhtml" style="display: flex; align-items: unsafe center; justify-content: unsafe center; width: 58px; height: 1px; padding-top: 235px; margin-left: 1091px;">
                            <div style="box-sizing: border-box; font-size: 0; text-align: center; color: #000000; ">
                                <div style="display: inline-block; font-size: 12px; font-family: &quot;Helvetica&quot;; color: light-dark(#000000, #ffffff); line-height: 1.2; pointer-events: all; white-space: normal; word-wrap: normal; ">
                                    Lat: xxxxx
                                </div>
                            </div>
                        </div>
                    </foreignObject>
                    <text x="1120" y="239" fill="light-dark(#000000, #ffffff)" font-family="&quot;Helvetica&quot;" font-size="12px" text-anchor="middle">
                        Lat: xxxxx
                    </text>
                </switch>
            </g>
        </g>
        <g>
            <rect x="1080" y="250" width="70" height="30" fill="none" stroke="none" pointer-events="all"/>
        </g>
        <g>
            <g transform="translate(-0.5 -0.5)">
                <switch>
                    <foreignObject style="overflow: visible; text-align: left;" pointer-events="none" width="100%" height="100%" requiredFeatures="http://www.w3.org/TR/SVG11/feature#Extensibility">
                        <div xmlns="http://www.w3.org/1999/xhtml" style="display: flex; align-items: unsafe center; justify-content: unsafe center; width: 68px; height: 1px; padding-top: 265px; margin-left: 1081px;">
                            <div style="box-sizing: border-box; font-size: 0; text-align: center; color: #000000; ">
                                <div style="display: inline-block; font-size: 12px; font-family: &quot;Helvetica&quot;; color: light-dark(#000000, #ffffff); line-height: 1.2; pointer-events: all; white-space: normal; word-wrap: normal; ">
                                    Long: xxxxx
                                </div>
                            </div>
                        </div>
                    </foreignObject>
                    <text x="1115" y="269" fill="light-dark(#000000, #ffffff)" font-family="&quot;Helvetica&quot;" font-size="12px" text-anchor="middle">
                        Long: xxxxx
                    </text>
                </switch>
            </g>
        </g>
        <g>
            <rect x="300" y="30" width="260" height="30" rx="4.5" ry="4.5" fill="#ffffff" stroke="#000000" pointer-events="all" style="fill: light-dark(#ffffff, var(--ge-dark-color, #121212)); stroke: light-dark(rgb(0, 0, 0), rgb(255, 255, 255));"/>
        </g>
        <g>
            <g transform="translate(-0.5 -0.5)">
                <switch>
                    <foreignObject style="overflow: visible; text-align: left;" pointer-events="none" width="100%" height="100%" requiredFeatures="http://www.w3.org/TR/SVG11/feature#Extensibility">
                        <div xmlns="http://www.w3.org/1999/xhtml" style="display: flex; align-items: unsafe center; justify-content: unsafe flex-start; width: 258px; height: 1px; padding-top: 45px; margin-left: 302px;">
                            <div style="box-sizing: border-box; font-size: 0; text-align: left; color: #000000; ">
                                <div style="display: inline-block; font-size: 12px; font-family: &quot;Helvetica&quot;; color: light-dark(#000000, #ffffff); line-height: 1.2; pointer-events: all; white-space: normal; word-wrap: normal; ">
                                    Search by postcode...
                                </div>
                            </div>
                        </div>
                    </foreignObject>
                    <text x="302" y="49" fill="light-dark(#000000, #ffffff)" font-family="&quot;Helvetica&quot;" font-size="12px">
                        Search by postcode...
                    </text>
                </switch>
            </g>
        </g>
        <g>
            <rect x="532" y="36" width="18" height="18" fill="none" stroke="none" pointer-events="all"/>
            <path d="M 548.72 52.8 C 548.33 53.19 547.67 53.19 547.28 52.8 L 543.33 48.85 C 543.87 48.44 544.35 47.96 544.76 47.41 L 548.72 51.37 C 549.11 51.77 549.11 52.41 548.72 52.8 M 532.81 43.18 C 532.81 39.72 535.63 36.9 539.09 36.9 C 542.55 36.9 545.37 39.72 545.37 43.18 C 545.37 46.64 542.55 49.46 539.09 49.46 C 535.63 49.46 532.81 46.64 532.81 43.18 M 549.29 50.8 L 545.22 46.73 C 545.82 45.68 546.18 44.47 546.18 43.18 C 546.18 39.27 543 36.09 539.09 36.09 C 535.18 36.09 532 39.27 532 43.18 C 532 47.09 535.18 50.27 539.09 50.27 C 540.38 50.27 541.59 49.91 542.64 49.3 L 546.71 53.38 C 547.06 53.72 547.51 53.91 548 53.91 C 548.49 53.91 548.94 53.72 549.29 53.38 C 550 52.67 550 51.51 549.29 50.8 M 539.09 47.63 C 536.63 47.63 534.63 45.63 534.63 43.18 C 534.63 40.72 536.63 38.72 539.09 38.72 C 541.55 38.72 543.54 40.72 543.54 43.18 C 543.54 45.63 541.55 47.63 539.09 47.63 M 539.09 37.91 C 536.19 37.91 533.82 40.27 533.82 43.18 C 533.82 46.08 536.19 48.44 539.09 48.44 C 541.99 48.44 544.35 46.08 544.35 43.18 C 544.35 40.27 541.99 37.91 539.09 37.91" fill="#232f3d" stroke="none" pointer-events="all" style="fill: light-dark(rgb(35, 47, 61), rgb(190, 200, 212));"/>
        </g>
        <g>
            <rect x="920" y="30" width="260" height="30" rx="4.5" ry="4.5" fill="#ffffff" stroke="#000000" pointer-events="all" style="fill: light-dark(#ffffff, var(--ge-dark-color, #121212)); stroke: light-dark(rgb(0, 0, 0), rgb(255, 255, 255));"/>
        </g>
        <g>
            <g transform="translate(-0.5 -0.5)">
                <switch>
                    <foreignObject style="overflow: visible; text-align: left;" pointer-events="none" width="100%" height="100%" requiredFeatures="http://www.w3.org/TR/SVG11/feature#Extensibility">
                        <div xmlns="http://www.w3.org/1999/xhtml" style="display: flex; align-items: unsafe center; justify-content: unsafe flex-start; width: 258px; height: 1px; padding-top: 45px; margin-left: 922px;">
                            <div style="box-sizing: border-box; font-size: 0; text-align: left; color: #000000; ">
                                <div style="display: inline-block; font-size: 12px; font-family: &quot;Helvetica&quot;; color: light-dark(#000000, #ffffff); line-height: 1.2; pointer-events: all; white-space: normal; word-wrap: normal; ">
                                    Search by postcode...
                                </div>
                            </div>
                        </div>
                    </foreignObject>
                    <text x="922" y="49" fill="light-dark(#000000, #ffffff)" font-family="&quot;Helvetica&quot;" font-size="12px">
                        Search by postcode...
                    </text>
                </switch>
            </g>
        </g>
        <g>
            <rect x="1162" y="36" width="18" height="18" fill="none" stroke="none" pointer-events="all"/>
            <path d="M 1178.72 52.8 C 1178.33 53.19 1177.67 53.19 1177.28 52.8 L 1173.33 48.85 C 1173.87 48.44 1174.35 47.96 1174.76 47.41 L 1178.72 51.37 C 1179.11 51.77 1179.11 52.41 1178.72 52.8 M 1162.81 43.18 C 1162.81 39.72 1165.63 36.9 1169.09 36.9 C 1172.55 36.9 1175.37 39.72 1175.37 43.18 C 1175.37 46.64 1172.55 49.46 1169.09 49.46 C 1165.63 49.46 1162.81 46.64 1162.81 43.18 M 1179.29 50.8 L 1175.22 46.73 C 1175.82 45.68 1176.18 44.47 1176.18 43.18 C 1176.18 39.27 1173 36.09 1169.09 36.09 C 1165.18 36.09 1162 39.27 1162 43.18 C 1162 47.09 1165.18 50.27 1169.09 50.27 C 1170.38 50.27 1171.59 49.91 1172.64 49.3 L 1176.71 53.38 C 1177.06 53.72 1177.51 53.91 1178 53.91 C 1178.49 53.91 1178.94 53.72 1179.29 53.38 C 1180 52.67 1180 51.51 1179.29 50.8 M 1169.09 47.63 C 1166.63 47.63 1164.63 45.63 1164.63 43.18 C 1164.63 40.72 1166.63 38.72 1169.09 38.72 C 1171.55 38.72 1173.54 40.72 1173.54 43.18 C 1173.54 45.63 1171.55 47.63 1169.09 47.63 M 1169.09 37.91 C 1166.19 37.91 1163.82 40.27 1163.82 43.18 C 1163.82 46.08 1166.19 48.44 1169.09 48.44 C 1171.99 48.44 1174.35 46.08 1174.35 43.18 C 1174.35 40.27 1171.99 37.91 1169.09 37.91" fill="#232f3d" stroke="none" pointer-events="all" style="fill: light-dark(rgb(35, 47, 61), rgb(190, 200, 212));"/>
        </g>
    </g>
    <switch>
        <g requiredFeatures="http://www.w3.org/TR/SVG11/feature#Extensibility"/>
        <a transform="translate(0,-5)" xlink:href="https://www.drawio.com/doc/faq/svg-export-text-problems" target="_blank">
            <text text-anchor="middle" font-size="10px" x="50%" y="100%">
                Text is not SVG - cannot display
            </text>
        </a>
    </switch>
</svg>